<svg width="18" height="18" viewBox="0 0 18 18" fill="none" xmlns="http://www.w3.org/2000/svg">
<path d="M6.46885 9.56253H2.8126C2.65693 9.562 2.50307 9.52917 2.36074 9.46611C2.21841 9.40305 2.09071 9.31114 1.98573 9.1962C1.87924 9.07946 1.79818 8.94186 1.74771 8.79213C1.69723 8.6424 1.67844 8.48381 1.69253 8.32643C1.78805 7.27247 2.11156 6.25188 2.64066 5.33536C3.16977 4.41884 3.8918 3.62831 4.75675 3.01854C4.88452 2.92817 5.02974 2.86545 5.18313 2.83439C5.33652 2.80333 5.4947 2.80462 5.64756 2.83817C5.80043 2.87172 5.94461 2.93679 6.07089 3.02923C6.19718 3.12168 6.30278 3.23945 6.38096 3.37503L8.20909 6.53909C8.24602 6.60308 8.26999 6.67371 8.27963 6.74697C8.28926 6.82022 8.28438 6.89465 8.26525 6.96601C8.24612 7.03738 8.21312 7.10427 8.16813 7.16288C8.12315 7.22149 8.06706 7.27067 8.00307 7.3076C7.93909 7.34454 7.86845 7.36851 7.7952 7.37814C7.72194 7.38778 7.64751 7.38289 7.57615 7.36376C7.50479 7.34463 7.43789 7.31163 7.37928 7.26665C7.32067 7.22166 7.27149 7.16558 7.23456 7.10159L5.40643 3.93753C4.67442 4.45317 4.06329 5.12184 3.6154 5.89717C3.16752 6.6725 2.89359 7.53595 2.8126 8.42768C2.81247 8.42981 2.81284 8.43195 2.8137 8.43391C2.81455 8.43586 2.81587 8.43759 2.81753 8.43893L6.46885 8.43753C6.61804 8.43753 6.76111 8.49679 6.8666 8.60228C6.97209 8.70777 7.03135 8.85084 7.03135 9.00003C7.03135 9.14921 6.97209 9.29228 6.8666 9.39777C6.76111 9.50326 6.61804 9.56253 6.46885 9.56253ZM16.3077 8.32643C16.2122 7.27247 15.8886 6.25188 15.3595 5.33536C14.8304 4.41884 14.1084 3.62831 13.2435 3.01854C13.1157 2.92817 12.9705 2.86545 12.8171 2.83439C12.6637 2.80333 12.5055 2.80462 12.3526 2.83817C12.1998 2.87172 12.0556 2.93679 11.9293 3.02923C11.803 3.12168 11.6974 3.23945 11.6192 3.37503L9.79464 6.53909C9.7577 6.60308 9.73373 6.67371 9.7241 6.74697C9.71446 6.82022 9.71935 6.89465 9.73848 6.96601C9.77711 7.11014 9.87142 7.23301 10.0007 7.3076C10.1299 7.3822 10.2835 7.4024 10.4276 7.36376C10.4989 7.34463 10.5658 7.31163 10.6244 7.26665C10.6831 7.22166 10.7322 7.16558 10.7692 7.10159L12.5973 3.93753C13.3285 4.45367 13.9389 5.12252 14.3861 5.8978C14.8334 6.67309 15.1069 7.53629 15.1876 8.42768C15.1876 8.4326 15.1876 8.43612 15.1876 8.43753H11.5314C11.3822 8.43753 11.2391 8.49679 11.1336 8.60228C11.0281 8.70777 10.9689 8.85084 10.9689 9.00003C10.9689 9.14921 11.0281 9.29228 11.1336 9.39777C11.2391 9.50326 11.3822 9.56253 11.5314 9.56253H15.1876C15.3433 9.562 15.4971 9.52917 15.6395 9.46611C15.7818 9.40305 15.9095 9.31114 16.0145 9.1962C16.121 9.07946 16.202 8.94186 16.2525 8.79213C16.303 8.6424 16.3218 8.48381 16.3077 8.32643ZM10.753 10.9111C10.7161 10.8471 10.6669 10.791 10.6083 10.7461C10.5497 10.7011 10.4828 10.6681 10.4114 10.6489C10.34 10.6298 10.2656 10.6249 10.1924 10.6346C10.1191 10.6442 10.0485 10.6682 9.98448 10.7051C9.92049 10.742 9.8644 10.7912 9.81942 10.8498C9.77444 10.9084 9.74144 10.9753 9.72231 11.0467C9.70318 11.1181 9.69829 11.1925 9.70793 11.2657C9.71756 11.339 9.74153 11.4096 9.77846 11.4736L11.5953 14.6187C10.7816 14.9935 9.89635 15.1875 9.00046 15.1875C8.10457 15.1875 7.21931 14.9935 6.40557 14.6187L8.22175 11.4736C8.25868 11.4096 8.28265 11.339 8.29228 11.2657C8.30192 11.1925 8.29703 11.1181 8.2779 11.0467C8.25877 10.9753 8.22577 10.9084 8.18079 10.8498C8.13581 10.7912 8.07972 10.742 8.01573 10.7051C7.95174 10.6682 7.8811 10.6442 7.80785 10.6346C7.7346 10.6249 7.66017 10.6298 7.5888 10.6489C7.51744 10.6681 7.45054 10.7011 7.39193 10.7461C7.33332 10.791 7.28415 10.8471 7.24721 10.9111L5.43175 14.0562C5.35358 14.1915 5.30444 14.3415 5.28746 14.4968C5.27048 14.6521 5.28603 14.8093 5.33313 14.9582C5.38022 15.1072 5.45783 15.2447 5.561 15.362C5.66417 15.4793 5.79065 15.5739 5.93237 15.6396C6.89432 16.083 7.94092 16.3125 9.0001 16.3125C10.0593 16.3125 11.1059 16.083 12.0678 15.6396C12.2096 15.5739 12.336 15.4793 12.4392 15.362C12.5424 15.2447 12.62 15.1072 12.6671 14.9582C12.7142 14.8093 12.7297 14.6521 12.7128 14.4968C12.6958 14.3415 12.6466 14.1915 12.5685 14.0562L10.753 10.9111ZM9.0001 9.84378C9.16698 9.84378 9.33011 9.79429 9.46887 9.70158C9.60762 9.60887 9.71577 9.47709 9.77963 9.32291C9.84349 9.16874 9.8602 8.99909 9.82764 8.83542C9.79509 8.67175 9.71473 8.5214 9.59673 8.4034C9.47872 8.2854 9.32838 8.20504 9.16471 8.17249C9.00104 8.13993 8.83139 8.15664 8.67722 8.2205C8.52304 8.28436 8.39126 8.39251 8.29855 8.53126C8.20584 8.67002 8.15635 8.83315 8.15635 9.00003C8.15635 9.2238 8.24525 9.43841 8.40348 9.59665C8.56172 9.75488 8.77633 9.84378 9.0001 9.84378Z" fill="white"/>
</svg>
