<svg width="22" height="22" viewBox="0 0 22 22" fill="none" xmlns="http://www.w3.org/2000/svg">
<path d="M18.5444 10.1552C18.5183 10.045 18.4655 9.94296 18.3905 9.85811C18.3156 9.77326 18.2208 9.70823 18.1147 9.6688L13.1638 7.81169L14.4237 1.5099C14.4522 1.36348 14.4323 1.21175 14.367 1.07761C14.3018 0.943478 14.1947 0.83421 14.0618 0.766297C13.929 0.698385 13.7777 0.675514 13.6308 0.701136C13.4838 0.726757 13.3492 0.799481 13.2472 0.908334L3.62217 11.2208C3.544 11.3032 3.48745 11.4037 3.45757 11.5132C3.42769 11.6228 3.42542 11.738 3.45096 11.8487C3.47649 11.9593 3.52904 12.0619 3.6039 12.1473C3.67877 12.2327 3.77362 12.2982 3.87998 12.338L8.83256 14.1951L7.57616 20.4901C7.54763 20.6365 7.5675 20.7882 7.63277 20.9223C7.69803 21.0565 7.80516 21.1657 7.93798 21.2337C8.07079 21.3016 8.2221 21.3244 8.36905 21.2988C8.51601 21.2732 8.65064 21.2005 8.75264 21.0916L18.3776 10.7791C18.4544 10.6967 18.5097 10.5967 18.5388 10.488C18.5679 10.3792 18.5698 10.2649 18.5444 10.1552ZM9.39889 18.3906L10.2987 13.8892C10.3309 13.7295 10.3053 13.5637 10.2267 13.4211C10.148 13.2785 10.0212 13.1685 9.86897 13.1106L5.32803 11.4047L12.6001 3.61365L11.7012 8.11505C11.669 8.2747 11.6945 8.44059 11.7732 8.58318C11.8519 8.72577 11.9786 8.83579 12.1308 8.89365L16.6683 10.5952L9.39889 18.3906Z" fill="#D4B3FF"/>
</svg>
