<svg width="18" height="18" viewBox="0 0 18 18" fill="none" xmlns="http://www.w3.org/2000/svg">
<path d="M18.0001 9.56238C18.0001 9.71157 17.9408 9.85464 17.8353 9.96013C17.7298 10.0656 17.5867 10.1249 17.4376 10.1249H16.3126V11.2499C16.3126 11.3991 16.2533 11.5421 16.1478 11.6476C16.0423 11.7531 15.8992 11.8124 15.7501 11.8124C15.6009 11.8124 15.4578 11.7531 15.3523 11.6476C15.2468 11.5421 15.1876 11.3991 15.1876 11.2499V10.1249H14.0626C13.9134 10.1249 13.7703 10.0656 13.6648 9.96013C13.5593 9.85464 13.5001 9.71157 13.5001 9.56238C13.5001 9.4132 13.5593 9.27012 13.6648 9.16463C13.7703 9.05914 13.9134 8.99988 14.0626 8.99988H15.1876V7.87488C15.1876 7.7257 15.2468 7.58262 15.3523 7.47713C15.4578 7.37165 15.6009 7.31238 15.7501 7.31238C15.8992 7.31238 16.0423 7.37165 16.1478 7.47713C16.2533 7.58262 16.3126 7.7257 16.3126 7.87488V8.99988H17.4376C17.5867 8.99988 17.7298 9.05914 17.8353 9.16463C17.9408 9.27012 18.0001 9.4132 18.0001 9.56238ZM13.9311 13.7003C14.0271 13.8146 14.0738 13.9624 14.0609 14.1111C14.048 14.2598 13.9765 14.3974 13.8622 14.4934C13.7479 14.5894 13.6001 14.6361 13.4513 14.6232C13.3026 14.6103 13.1651 14.5388 13.069 14.4245C11.6544 12.7398 9.70951 11.8124 7.59381 11.8124C5.47811 11.8124 3.53326 12.7398 2.11858 14.4245C2.02254 14.5387 1.88506 14.6101 1.73639 14.623C1.58771 14.6358 1.44002 14.5891 1.3258 14.493C1.21158 14.397 1.14019 14.2595 1.12734 14.1109C1.11448 13.9622 1.16121 13.8145 1.25725 13.7003C2.30772 12.4501 3.61412 11.5621 5.06608 11.0868C4.18429 10.5375 3.50537 9.7161 3.13202 8.74667C2.75867 7.77724 2.71121 6.7126 2.99682 5.7138C3.28243 4.715 3.88556 3.83639 4.71499 3.2109C5.54441 2.58541 6.55498 2.24707 7.59381 2.24707C8.63265 2.24707 9.64322 2.58541 10.4726 3.2109C11.3021 3.83639 11.9052 4.715 12.1908 5.7138C12.4764 6.7126 12.429 7.77724 12.0556 8.74667C11.6823 9.7161 11.0033 10.5375 10.1215 11.0868C11.5735 11.5621 12.8799 12.4501 13.9311 13.7003ZM7.59381 10.6874C8.31695 10.6874 9.02385 10.4729 9.62512 10.0712C10.2264 9.66944 10.695 9.09841 10.9717 8.43032C11.2485 7.76223 11.3209 7.02708 11.1798 6.31783C11.0387 5.60859 10.6905 4.95711 10.1792 4.44577C9.66783 3.93444 9.01635 3.58621 8.30711 3.44514C7.59787 3.30406 6.86272 3.37646 6.19463 3.6532C5.52653 3.92993 4.9555 4.39856 4.55375 4.99983C4.152 5.6011 3.93756 6.30799 3.93756 7.03113C3.93868 8.00049 4.32425 8.92982 5.00969 9.61526C5.69512 10.3007 6.62446 10.6863 7.59381 10.6874Z" fill="white"/>
</svg>
